<svg width="900" height="680" viewBox="0 0 900 680" fill="none" xmlns="http://www.w3.org/2000/svg">
  <rect width="900" height="680" rx="36" fill="#F7F2EA"/>
  <rect x="84" y="88" width="732" height="504" rx="28" fill="#FFFDF8"/>
  <rect x="128" y="136" width="644" height="88" rx="22" fill="#E9F6EF"/>
  <rect x="128" y="254" width="644" height="88" rx="22" fill="#FFF3E4"/>
  <rect x="128" y="372" width="644" height="88" rx="22" fill="#E9F6EF"/>
  <rect x="128" y="490" width="644" height="56" rx="18" fill="#FFF3E4"/>
  <circle cx="188" cy="180" r="24" fill="#13795B"/>
  <circle cx="188" cy="298" r="24" fill="#DD8B3D"/>
  <circle cx="188" cy="416" r="24" fill="#13795B"/>
  <path d="M246 180H514" stroke="#17362D" stroke-width="18" stroke-linecap="round"/>
  <path d="M246 208H636" stroke="#5B6D66" stroke-width="14" stroke-linecap="round"/>
  <path d="M246 298H548" stroke="#17362D" stroke-width="18" stroke-linecap="round"/>
  <path d="M246 326H664" stroke="#5B6D66" stroke-width="14" stroke-linecap="round"/>
  <path d="M246 416H578" stroke="#17362D" stroke-width="18" stroke-linecap="round"/>
  <path d="M246 444H620" stroke="#5B6D66" stroke-width="14" stroke-linecap="round"/>
  <path d="M160 530H364" stroke="#17362D" stroke-width="16" stroke-linecap="round"/>
  <path d="M630 530H728" stroke="#17362D" stroke-width="16" stroke-linecap="round"/>
</svg>
