<svg width="1200" height="760" viewBox="0 0 1200 760" fill="none" xmlns="http://www.w3.org/2000/svg">
  <rect width="1200" height="760" rx="40" fill="#F6F0E6"/>
  <rect x="48" y="58" width="1104" height="644" rx="32" fill="#17362D"/>
  <ellipse cx="600" cy="380" rx="430" ry="220" fill="#1E8A61"/>
  <rect x="270" y="178" width="660" height="404" rx="24" fill="#2FA770"/>
  <path d="M600 178V582" stroke="#E7F7ED" stroke-width="8"/>
  <circle cx="600" cy="380" r="86" stroke="#E7F7ED" stroke-width="8"/>
  <circle cx="600" cy="380" r="8" fill="#E7F7ED"/>
  <rect x="270" y="292" width="84" height="176" rx="12" stroke="#E7F7ED" stroke-width="8"/>
  <rect x="846" y="292" width="84" height="176" rx="12" stroke="#E7F7ED" stroke-width="8"/>
  <path d="M104 120C184 60 298 28 412 32" stroke="#DD8B3D" stroke-width="24" stroke-linecap="round"/>
  <path d="M1094 640C1014 700 900 732 786 728" stroke="#DD8B3D" stroke-width="24" stroke-linecap="round"/>
  <circle cx="210" cy="586" r="56" fill="#FFF7EC"/>
  <path d="M210 546L218 572H246L223 588L232 614L210 598L188 614L197 588L174 572H202L210 546Z" fill="#DD8B3D"/>
  <rect x="944" y="122" width="142" height="82" rx="18" fill="#FFF7EC"/>
  <path d="M985 145H1045" stroke="#17362D" stroke-width="12" stroke-linecap="round"/>
  <path d="M985 180H1020" stroke="#17362D" stroke-width="12" stroke-linecap="round"/>
</svg>
